<?xml version="1.0" encoding="UTF-8" standalone="no"?>
<!DOCTYPE svg PUBLIC "-//W3C//DTD SVG 1.1//EN"
 "http://www.w3.org/Graphics/SVG/1.1/DTD/svg11.dtd">
<!-- Generated by graphviz version 2.43.0 (0)
 -->
<!-- Title: dependency&#45;cruiser output Pages: 1 -->
<svg width="514pt" height="1060pt"
 viewBox="0.00 0.00 514.00 1060.00" xmlns="http://www.w3.org/2000/svg" xmlns:xlink="http://www.w3.org/1999/xlink">
<g id="graph0" class="graph" transform="scale(1 1) rotate(0) translate(4 1056)">
<title>dependency&#45;cruiser output</title>
<polygon fill="white" stroke="transparent" points="-4,4 -4,-1056 510,-1056 510,4 -4,4"/>
<g id="clust1" class="cluster">
<title>cluster_api</title>
<path fill="#ffffff" stroke="black" stroke-width="2" d="M20,-8C20,-8 171,-8 171,-8 177,-8 183,-14 183,-20 183,-20 183,-664 183,-664 183,-670 177,-676 171,-676 171,-676 20,-676 20,-676 14,-676 8,-670 8,-664 8,-664 8,-20 8,-20 8,-14 14,-8 20,-8"/>
<text text-anchor="middle" x="95.5" y="-664.8" font-family="Helvetica,sans-Serif" font-weight="bold" font-size="9.00">api</text>
</g>
<g id="clust2" class="cluster">
<title>cluster_api/global</title>
<path fill="#ffffff" stroke="black" stroke-width="2" d="M64.5,-444C64.5,-444 127.5,-444 127.5,-444 133.5,-444 139.5,-450 139.5,-456 139.5,-456 139.5,-638 139.5,-638 139.5,-644 133.5,-650 127.5,-650 127.5,-650 64.5,-650 64.5,-650 58.5,-650 52.5,-644 52.5,-638 52.5,-638 52.5,-456 52.5,-456 52.5,-450 58.5,-444 64.5,-444"/>
<text text-anchor="middle" x="96" y="-638.8" font-family="Helvetica,sans-Serif" font-weight="bold" font-size="9.00">global</text>
</g>
<g id="clust3" class="cluster">
<title>cluster_api/global/controllers</title>
<path fill="#ffffff" stroke="black" stroke-width="2" d="M72.5,-572C72.5,-572 119.5,-572 119.5,-572 125.5,-572 131.5,-578 131.5,-584 131.5,-584 131.5,-612 131.5,-612 131.5,-618 125.5,-624 119.5,-624 119.5,-624 72.5,-624 72.5,-624 66.5,-624 60.5,-618 60.5,-612 60.5,-612 60.5,-584 60.5,-584 60.5,-578 66.5,-572 72.5,-572"/>
<text text-anchor="middle" x="96" y="-612.8" font-family="Helvetica,sans-Serif" font-weight="bold" font-size="9.00">controllers</text>
</g>
<g id="clust4" class="cluster">
<title>cluster_api/global/models</title>
<path fill="#ffffff" stroke="black" stroke-width="2" d="M72.5,-512C72.5,-512 118.5,-512 118.5,-512 124.5,-512 130.5,-518 130.5,-524 130.5,-524 130.5,-552 130.5,-552 130.5,-558 124.5,-564 118.5,-564 118.5,-564 72.5,-564 72.5,-564 66.5,-564 60.5,-558 60.5,-552 60.5,-552 60.5,-524 60.5,-524 60.5,-518 66.5,-512 72.5,-512"/>
<text text-anchor="middle" x="95.5" y="-552.8" font-family="Helvetica,sans-Serif" font-weight="bold" font-size="9.00">models</text>
</g>
<g id="clust5" class="cluster">
<title>cluster_api/global/services</title>
<path fill="#ffffff" stroke="black" stroke-width="2" d="M72.5,-452C72.5,-452 118.5,-452 118.5,-452 124.5,-452 130.5,-458 130.5,-464 130.5,-464 130.5,-492 130.5,-492 130.5,-498 124.5,-504 118.5,-504 118.5,-504 72.5,-504 72.5,-504 66.5,-504 60.5,-498 60.5,-492 60.5,-492 60.5,-464 60.5,-464 60.5,-458 66.5,-452 72.5,-452"/>
<text text-anchor="middle" x="95.5" y="-492.8" font-family="Helvetica,sans-Serif" font-weight="bold" font-size="9.00">services</text>
</g>
<g id="clust6" class="cluster">
<title>cluster_api/lead&#45;form&#45;submissions</title>
<path fill="#ffffff" stroke="black" stroke-width="2" d="M28,-230C28,-230 163,-230 163,-230 169,-230 175,-236 175,-242 175,-242 175,-424 175,-424 175,-430 169,-436 163,-436 163,-436 28,-436 28,-436 22,-436 16,-430 16,-424 16,-424 16,-242 16,-242 16,-236 22,-230 28,-230"/>
<text text-anchor="middle" x="95.5" y="-424.8" font-family="Helvetica,sans-Serif" font-weight="bold" font-size="9.00">lead&#45;form&#45;submissions</text>
</g>
<g id="clust7" class="cluster">
<title>cluster_api/lead&#45;form&#45;submissions/controllers</title>
<path fill="#ffffff" stroke="black" stroke-width="2" d="M36,-358C36,-358 155,-358 155,-358 161,-358 167,-364 167,-370 167,-370 167,-398 167,-398 167,-404 161,-410 155,-410 155,-410 36,-410 36,-410 30,-410 24,-404 24,-398 24,-398 24,-370 24,-370 24,-364 30,-358 36,-358"/>
<text text-anchor="middle" x="95.5" y="-398.8" font-family="Helvetica,sans-Serif" font-weight="bold" font-size="9.00">controllers</text>
</g>
<g id="clust8" class="cluster">
<title>cluster_api/lead&#45;form&#45;submissions/models</title>
<path fill="#ffffff" stroke="black" stroke-width="2" d="M36,-298C36,-298 155,-298 155,-298 161,-298 167,-304 167,-310 167,-310 167,-338 167,-338 167,-344 161,-350 155,-350 155,-350 36,-350 36,-350 30,-350 24,-344 24,-338 24,-338 24,-310 24,-310 24,-304 30,-298 36,-298"/>
<text text-anchor="middle" x="95.5" y="-338.8" font-family="Helvetica,sans-Serif" font-weight="bold" font-size="9.00">models</text>
</g>
<g id="clust9" class="cluster">
<title>cluster_api/lead&#45;form&#45;submissions/services</title>
<path fill="#ffffff" stroke="black" stroke-width="2" d="M36,-238C36,-238 155,-238 155,-238 161,-238 167,-244 167,-250 167,-250 167,-278 167,-278 167,-284 161,-290 155,-290 155,-290 36,-290 36,-290 30,-290 24,-284 24,-278 24,-278 24,-250 24,-250 24,-244 30,-238 36,-238"/>
<text text-anchor="middle" x="95.5" y="-278.8" font-family="Helvetica,sans-Serif" font-weight="bold" font-size="9.00">services</text>
</g>
<g id="clust10" class="cluster">
<title>cluster_api/page</title>
<path fill="#ffffff" stroke="black" stroke-width="2" d="M64.5,-16C64.5,-16 127.5,-16 127.5,-16 133.5,-16 139.5,-22 139.5,-28 139.5,-28 139.5,-210 139.5,-210 139.5,-216 133.5,-222 127.5,-222 127.5,-222 64.5,-222 64.5,-222 58.5,-222 52.5,-216 52.5,-210 52.5,-210 52.5,-28 52.5,-28 52.5,-22 58.5,-16 64.5,-16"/>
<text text-anchor="middle" x="96" y="-210.8" font-family="Helvetica,sans-Serif" font-weight="bold" font-size="9.00">page</text>
</g>
<g id="clust11" class="cluster">
<title>cluster_api/page/controllers</title>
<path fill="#ffffff" stroke="black" stroke-width="2" d="M72.5,-144C72.5,-144 119.5,-144 119.5,-144 125.5,-144 131.5,-150 131.5,-156 131.5,-156 131.5,-184 131.5,-184 131.5,-190 125.5,-196 119.5,-196 119.5,-196 72.5,-196 72.5,-196 66.5,-196 60.5,-190 60.5,-184 60.5,-184 60.5,-156 60.5,-156 60.5,-150 66.5,-144 72.5,-144"/>
<text text-anchor="middle" x="96" y="-184.8" font-family="Helvetica,sans-Serif" font-weight="bold" font-size="9.00">controllers</text>
</g>
<g id="clust12" class="cluster">
<title>cluster_api/page/models</title>
<path fill="#ffffff" stroke="black" stroke-width="2" d="M72.5,-84C72.5,-84 118.5,-84 118.5,-84 124.5,-84 130.5,-90 130.5,-96 130.5,-96 130.5,-124 130.5,-124 130.5,-130 124.5,-136 118.5,-136 118.5,-136 72.5,-136 72.5,-136 66.5,-136 60.5,-130 60.5,-124 60.5,-124 60.5,-96 60.5,-96 60.5,-90 66.5,-84 72.5,-84"/>
<text text-anchor="middle" x="95.5" y="-124.8" font-family="Helvetica,sans-Serif" font-weight="bold" font-size="9.00">models</text>
</g>
<g id="clust13" class="cluster">
<title>cluster_api/page/services</title>
<path fill="#ffffff" stroke="black" stroke-width="2" d="M72.5,-24C72.5,-24 118.5,-24 118.5,-24 124.5,-24 130.5,-30 130.5,-36 130.5,-36 130.5,-64 130.5,-64 130.5,-70 124.5,-76 118.5,-76 118.5,-76 72.5,-76 72.5,-76 66.5,-76 60.5,-70 60.5,-64 60.5,-64 60.5,-36 60.5,-36 60.5,-30 66.5,-24 72.5,-24"/>
<text text-anchor="middle" x="95.5" y="-64.8" font-family="Helvetica,sans-Serif" font-weight="bold" font-size="9.00">services</text>
</g>
<g id="clust14" class="cluster">
<title>cluster_config</title>
<path fill="#ffffff" stroke="black" stroke-width="2" d="M56.5,-684C56.5,-684 134.5,-684 134.5,-684 140.5,-684 146.5,-690 146.5,-696 146.5,-696 146.5,-904 146.5,-904 146.5,-910 140.5,-916 134.5,-916 134.5,-916 56.5,-916 56.5,-916 50.5,-916 44.5,-910 44.5,-904 44.5,-904 44.5,-696 44.5,-696 44.5,-690 50.5,-684 56.5,-684"/>
<text text-anchor="middle" x="95.5" y="-904.8" font-family="Helvetica,sans-Serif" font-weight="bold" font-size="9.00">config</text>
</g>
<g id="clust15" class="cluster">
<title>cluster_config/functions</title>
<path fill="#ffffff" stroke="black" stroke-width="2" d="M64.5,-748C64.5,-748 126.5,-748 126.5,-748 132.5,-748 138.5,-754 138.5,-760 138.5,-760 138.5,-878 138.5,-878 138.5,-884 132.5,-890 126.5,-890 126.5,-890 64.5,-890 64.5,-890 58.5,-890 52.5,-884 52.5,-878 52.5,-878 52.5,-760 52.5,-760 52.5,-754 58.5,-748 64.5,-748"/>
<text text-anchor="middle" x="95.5" y="-878.8" font-family="Helvetica,sans-Serif" font-weight="bold" font-size="9.00">functions</text>
</g>
<g id="clust16" class="cluster">
<title>cluster_config/functions/responses</title>
<path fill="#ffffff" stroke="black" stroke-width="2" d="M72.5,-812C72.5,-812 118.5,-812 118.5,-812 124.5,-812 130.5,-818 130.5,-824 130.5,-824 130.5,-852 130.5,-852 130.5,-858 124.5,-864 118.5,-864 118.5,-864 72.5,-864 72.5,-864 66.5,-864 60.5,-858 60.5,-852 60.5,-852 60.5,-824 60.5,-824 60.5,-818 66.5,-812 72.5,-812"/>
<text text-anchor="middle" x="95.5" y="-852.8" font-family="Helvetica,sans-Serif" font-weight="bold" font-size="9.00">responses</text>
</g>
<g id="clust17" class="cluster">
<title>cluster_data</title>
<path fill="#ffffff" stroke="black" stroke-width="2" d="M203,-776C203,-776 486,-776 486,-776 492,-776 498,-782 498,-788 498,-788 498,-996 498,-996 498,-1002 492,-1008 486,-1008 486,-1008 203,-1008 203,-1008 197,-1008 191,-1002 191,-996 191,-996 191,-788 191,-788 191,-782 197,-776 203,-776"/>
<text text-anchor="middle" x="344.5" y="-996.8" font-family="Helvetica,sans-Serif" font-weight="bold" font-size="9.00">data</text>
</g>
<g id="clust18" class="cluster">
<title>cluster_data/en</title>
<path fill="#ffffff" stroke="black" stroke-width="2" d="M312,-784C312,-784 478,-784 478,-784 484,-784 490,-790 490,-796 490,-796 490,-854 490,-854 490,-860 484,-866 478,-866 478,-866 312,-866 312,-866 306,-866 300,-860 300,-854 300,-854 300,-796 300,-796 300,-790 306,-784 312,-784"/>
<text text-anchor="middle" x="395" y="-854.8" font-family="Helvetica,sans-Serif" font-weight="bold" font-size="9.00">en</text>
</g>
<g id="clust19" class="cluster">
<title>cluster_data/fr</title>
<path fill="#ffffff" stroke="black" stroke-width="2" d="M312,-874C312,-874 478,-874 478,-874 484,-874 490,-880 490,-886 490,-886 490,-944 490,-944 490,-950 484,-956 478,-956 478,-956 312,-956 312,-956 306,-956 300,-950 300,-944 300,-944 300,-886 300,-886 300,-880 306,-874 312,-874"/>
<text text-anchor="middle" x="395" y="-944.8" font-family="Helvetica,sans-Serif" font-weight="bold" font-size="9.00">fr</text>
</g>
<g id="clust20" class="cluster">
<title>cluster_extensions</title>
<path fill="#ffffff" stroke="black" stroke-width="2" d="M44.5,-924C44.5,-924 146.5,-924 146.5,-924 152.5,-924 158.5,-930 158.5,-936 158.5,-936 158.5,-1032 158.5,-1032 158.5,-1038 152.5,-1044 146.5,-1044 146.5,-1044 44.5,-1044 44.5,-1044 38.5,-1044 32.5,-1038 32.5,-1032 32.5,-1032 32.5,-936 32.5,-936 32.5,-930 38.5,-924 44.5,-924"/>
<text text-anchor="middle" x="95.5" y="-1032.8" font-family="Helvetica,sans-Serif" font-weight="bold" font-size="9.00">extensions</text>
</g>
<g id="clust21" class="cluster">
<title>cluster_extensions/users&#45;permissions</title>
<path fill="#ffffff" stroke="black" stroke-width="2" d="M52.5,-932C52.5,-932 138.5,-932 138.5,-932 144.5,-932 150.5,-938 150.5,-944 150.5,-944 150.5,-1006 150.5,-1006 150.5,-1012 144.5,-1018 138.5,-1018 138.5,-1018 52.5,-1018 52.5,-1018 46.5,-1018 40.5,-1012 40.5,-1006 40.5,-1006 40.5,-944 40.5,-944 40.5,-938 46.5,-932 52.5,-932"/>
<text text-anchor="middle" x="95.5" y="-1006.8" font-family="Helvetica,sans-Serif" font-weight="bold" font-size="9.00">users&#45;permissions</text>
</g>
<g id="clust22" class="cluster">
<title>cluster_extensions/users&#45;permissions/config</title>
<path fill="#ffffff" stroke="black" stroke-width="2" d="M72.5,-940C72.5,-940 118.5,-940 118.5,-940 124.5,-940 130.5,-946 130.5,-952 130.5,-952 130.5,-980 130.5,-980 130.5,-986 124.5,-992 118.5,-992 118.5,-992 72.5,-992 72.5,-992 66.5,-992 60.5,-986 60.5,-980 60.5,-980 60.5,-952 60.5,-952 60.5,-946 66.5,-940 72.5,-940"/>
<text text-anchor="middle" x="95.5" y="-980.8" font-family="Helvetica,sans-Serif" font-weight="bold" font-size="9.00">config</text>
</g>
<!-- api/global/controllers/global.js -->
<g id="node1" class="node">
<title>api/global/controllers/global.js</title>
<g id="a_node1"><a xlink:href="api/global/controllers/global.js" xlink:title="global.js">
<path fill="#ccffcc" stroke="black" d="M116.5,-598C116.5,-598 74.5,-598 74.5,-598 71.5,-598 68.5,-595 68.5,-592 68.5,-592 68.5,-586 68.5,-586 68.5,-583 71.5,-580 74.5,-580 74.5,-580 116.5,-580 116.5,-580 119.5,-580 122.5,-583 122.5,-586 122.5,-586 122.5,-592 122.5,-592 122.5,-595 119.5,-598 116.5,-598"/>
<text text-anchor="middle" x="95.5" y="-586.8" font-family="Helvetica,sans-Serif" font-size="9.00">global.js</text>
</a>
</g>
</g>
<!-- api/global/models/global.js -->
<g id="node2" class="node">
<title>api/global/models/global.js</title>
<g id="a_node2"><a xlink:href="api/global/models/global.js" xlink:title="global.js">
<path fill="#ccffcc" stroke="black" d="M116.5,-538C116.5,-538 74.5,-538 74.5,-538 71.5,-538 68.5,-535 68.5,-532 68.5,-532 68.5,-526 68.5,-526 68.5,-523 71.5,-520 74.5,-520 74.5,-520 116.5,-520 116.5,-520 119.5,-520 122.5,-523 122.5,-526 122.5,-526 122.5,-532 122.5,-532 122.5,-535 119.5,-538 116.5,-538"/>
<text text-anchor="middle" x="95.5" y="-526.8" font-family="Helvetica,sans-Serif" font-size="9.00">global.js</text>
</a>
</g>
</g>
<!-- api/global/services/global.js -->
<g id="node3" class="node">
<title>api/global/services/global.js</title>
<g id="a_node3"><a xlink:href="api/global/services/global.js" xlink:title="global.js">
<path fill="#ccffcc" stroke="black" d="M116.5,-478C116.5,-478 74.5,-478 74.5,-478 71.5,-478 68.5,-475 68.5,-472 68.5,-472 68.5,-466 68.5,-466 68.5,-463 71.5,-460 74.5,-460 74.5,-460 116.5,-460 116.5,-460 119.5,-460 122.5,-463 122.5,-466 122.5,-466 122.5,-472 122.5,-472 122.5,-475 119.5,-478 116.5,-478"/>
<text text-anchor="middle" x="95.5" y="-466.8" font-family="Helvetica,sans-Serif" font-size="9.00">global.js</text>
</a>
</g>
</g>
<!-- api/lead&#45;form&#45;submissions/controllers/lead&#45;form&#45;submissions.js -->
<g id="node4" class="node">
<title>api/lead&#45;form&#45;submissions/controllers/lead&#45;form&#45;submissions.js</title>
<g id="a_node4"><a xlink:href="api/lead-form-submissions/controllers/lead-form-submissions.js" xlink:title="lead&#45;form&#45;submissions.js">
<path fill="#ccffcc" stroke="black" d="M153,-384C153,-384 38,-384 38,-384 35,-384 32,-381 32,-378 32,-378 32,-372 32,-372 32,-369 35,-366 38,-366 38,-366 153,-366 153,-366 156,-366 159,-369 159,-372 159,-372 159,-378 159,-378 159,-381 156,-384 153,-384"/>
<text text-anchor="middle" x="95.5" y="-372.8" font-family="Helvetica,sans-Serif" font-size="9.00">lead&#45;form&#45;submissions.js</text>
</a>
</g>
</g>
<!-- api/lead&#45;form&#45;submissions/models/lead&#45;form&#45;submissions.js -->
<g id="node5" class="node">
<title>api/lead&#45;form&#45;submissions/models/lead&#45;form&#45;submissions.js</title>
<g id="a_node5"><a xlink:href="api/lead-form-submissions/models/lead-form-submissions.js" xlink:title="lead&#45;form&#45;submissions.js">
<path fill="#ccffcc" stroke="black" d="M153,-324C153,-324 38,-324 38,-324 35,-324 32,-321 32,-318 32,-318 32,-312 32,-312 32,-309 35,-306 38,-306 38,-306 153,-306 153,-306 156,-306 159,-309 159,-312 159,-312 159,-318 159,-318 159,-321 156,-324 153,-324"/>
<text text-anchor="middle" x="95.5" y="-312.8" font-family="Helvetica,sans-Serif" font-size="9.00">lead&#45;form&#45;submissions.js</text>
</a>
</g>
</g>
<!-- api/lead&#45;form&#45;submissions/services/lead&#45;form&#45;submissions.js -->
<g id="node6" class="node">
<title>api/lead&#45;form&#45;submissions/services/lead&#45;form&#45;submissions.js</title>
<g id="a_node6"><a xlink:href="api/lead-form-submissions/services/lead-form-submissions.js" xlink:title="lead&#45;form&#45;submissions.js">
<path fill="#ccffcc" stroke="black" d="M153,-264C153,-264 38,-264 38,-264 35,-264 32,-261 32,-258 32,-258 32,-252 32,-252 32,-249 35,-246 38,-246 38,-246 153,-246 153,-246 156,-246 159,-249 159,-252 159,-252 159,-258 159,-258 159,-261 156,-264 153,-264"/>
<text text-anchor="middle" x="95.5" y="-252.8" font-family="Helvetica,sans-Serif" font-size="9.00">lead&#45;form&#45;submissions.js</text>
</a>
</g>
</g>
<!-- api/page/controllers/page.js -->
<g id="node7" class="node">
<title>api/page/controllers/page.js</title>
<g id="a_node7"><a xlink:href="api/page/controllers/page.js" xlink:title="page.js">
<path fill="#ccffcc" stroke="black" d="M116.5,-170C116.5,-170 74.5,-170 74.5,-170 71.5,-170 68.5,-167 68.5,-164 68.5,-164 68.5,-158 68.5,-158 68.5,-155 71.5,-152 74.5,-152 74.5,-152 116.5,-152 116.5,-152 119.5,-152 122.5,-155 122.5,-158 122.5,-158 122.5,-164 122.5,-164 122.5,-167 119.5,-170 116.5,-170"/>
<text text-anchor="middle" x="95.5" y="-158.8" font-family="Helvetica,sans-Serif" font-size="9.00">page.js</text>
</a>
</g>
</g>
<!-- api/page/models/page.js -->
<g id="node8" class="node">
<title>api/page/models/page.js</title>
<g id="a_node8"><a xlink:href="api/page/models/page.js" xlink:title="page.js">
<path fill="#ccffcc" stroke="black" d="M116.5,-110C116.5,-110 74.5,-110 74.5,-110 71.5,-110 68.5,-107 68.5,-104 68.5,-104 68.5,-98 68.5,-98 68.5,-95 71.5,-92 74.5,-92 74.5,-92 116.5,-92 116.5,-92 119.5,-92 122.5,-95 122.5,-98 122.5,-98 122.5,-104 122.5,-104 122.5,-107 119.5,-110 116.5,-110"/>
<text text-anchor="middle" x="95.5" y="-98.8" font-family="Helvetica,sans-Serif" font-size="9.00">page.js</text>
</a>
</g>
</g>
<!-- api/page/services/page.js -->
<g id="node9" class="node">
<title>api/page/services/page.js</title>
<g id="a_node9"><a xlink:href="api/page/services/page.js" xlink:title="page.js">
<path fill="#ccffcc" stroke="black" d="M116.5,-50C116.5,-50 74.5,-50 74.5,-50 71.5,-50 68.5,-47 68.5,-44 68.5,-44 68.5,-38 68.5,-38 68.5,-35 71.5,-32 74.5,-32 74.5,-32 116.5,-32 116.5,-32 119.5,-32 122.5,-35 122.5,-38 122.5,-38 122.5,-44 122.5,-44 122.5,-47 119.5,-50 116.5,-50"/>
<text text-anchor="middle" x="95.5" y="-38.8" font-family="Helvetica,sans-Serif" font-size="9.00">page.js</text>
</a>
</g>
</g>
<!-- config/database.js -->
<g id="node10" class="node">
<title>config/database.js</title>
<g id="a_node10"><a xlink:href="config/database.js" xlink:title="database.js">
<path fill="#ccffcc" stroke="black" d="M123.5,-740C123.5,-740 67.5,-740 67.5,-740 64.5,-740 61.5,-737 61.5,-734 61.5,-734 61.5,-728 61.5,-728 61.5,-725 64.5,-722 67.5,-722 67.5,-722 123.5,-722 123.5,-722 126.5,-722 129.5,-725 129.5,-728 129.5,-728 129.5,-734 129.5,-734 129.5,-737 126.5,-740 123.5,-740"/>
<text text-anchor="middle" x="95.5" y="-728.8" font-family="Helvetica,sans-Serif" font-size="9.00">database.js</text>
</a>
</g>
</g>
<!-- config/functions/bootstrap.js -->
<g id="node11" class="node">
<title>config/functions/bootstrap.js</title>
<g id="a_node11"><a xlink:href="config/functions/bootstrap.js" xlink:title="bootstrap.js">
<path fill="#ffffcc" stroke="black" d="M124.5,-804C124.5,-804 66.5,-804 66.5,-804 63.5,-804 60.5,-801 60.5,-798 60.5,-798 60.5,-792 60.5,-792 60.5,-789 63.5,-786 66.5,-786 66.5,-786 124.5,-786 124.5,-786 127.5,-786 130.5,-789 130.5,-792 130.5,-792 130.5,-798 130.5,-798 130.5,-801 127.5,-804 124.5,-804"/>
<text text-anchor="middle" x="95.5" y="-792.8" font-family="Helvetica,sans-Serif" font-size="9.00">bootstrap.js</text>
</a>
</g>
</g>
<!-- data/data.js -->
<g id="node12" class="node">
<title>data/data.js</title>
<g id="a_node12"><a xlink:href="data/data.js" xlink:title="data.js">
<path fill="#ffffcc" stroke="black" d="M247,-870C247,-870 205,-870 205,-870 202,-870 199,-867 199,-864 199,-864 199,-858 199,-858 199,-855 202,-852 205,-852 205,-852 247,-852 247,-852 250,-852 253,-855 253,-858 253,-858 253,-864 253,-864 253,-867 250,-870 247,-870"/>
<text text-anchor="middle" x="226" y="-858.8" font-family="Helvetica,sans-Serif" font-size="9.00">data.js</text>
</a>
</g>
</g>
<!-- config/functions/bootstrap.js&#45;&gt;data/data.js -->
<g id="edge1" class="edge">
<title>config/functions/bootstrap.js&#45;&gt;data/data.js</title>
<path fill="none" stroke="#000000" stroke-width="2" stroke-opacity="0.200000" d="M127,-804.18C127,-822.31 127,-861 127,-861 127,-861 192.95,-861 192.95,-861"/>
<polygon fill="#000000" fill-opacity="0.200000" stroke="#000000" stroke-width="2" stroke-opacity="0.200000" points="192.95,-863.1 198.95,-861 192.95,-858.9 192.95,-863.1"/>
</g>
<!-- fs -->
<g id="node13" class="node">
<title>fs</title>
<path fill="#ffffcc" stroke="grey" d="M247,-768C247,-768 205,-768 205,-768 202,-768 199,-765 199,-762 199,-762 199,-756 199,-756 199,-753 202,-750 205,-750 205,-750 247,-750 247,-750 250,-750 253,-753 253,-756 253,-756 253,-762 253,-762 253,-765 250,-768 247,-768"/>
<text text-anchor="middle" x="226" y="-756.8" font-family="Helvetica,sans-Serif" font-size="9.00" fill="grey">fs</text>
</g>
<!-- config/functions/bootstrap.js&#45;&gt;fs -->
<g id="edge2" class="edge">
<title>config/functions/bootstrap.js&#45;&gt;fs</title>
<path fill="none" stroke="#000000" stroke-dasharray="5,2" stroke-opacity="0.200000" d="M126,-785.98C126,-776.21 126,-762 126,-762 126,-762 192.94,-762 192.94,-762"/>
<polygon fill="#000000" fill-opacity="0.200000" stroke="#000000" stroke-opacity="0.200000" points="192.94,-764.1 198.94,-762 192.94,-759.9 192.94,-764.1"/>
</g>
<!-- data/en/index.js -->
<g id="node17" class="node">
<title>data/en/index.js</title>
<g id="a_node17"><a xlink:href="data/en/index.js" xlink:title="index.js">
<path fill="#ffffcc" stroke="black" d="M356,-840C356,-840 314,-840 314,-840 311,-840 308,-837 308,-834 308,-834 308,-828 308,-828 308,-825 311,-822 314,-822 314,-822 356,-822 356,-822 359,-822 362,-825 362,-828 362,-828 362,-834 362,-834 362,-837 359,-840 356,-840"/>
<text text-anchor="middle" x="335" y="-828.8" font-family="Helvetica,sans-Serif" font-size="9.00">index.js</text>
</a>
</g>
</g>
<!-- data/data.js&#45;&gt;data/en/index.js -->
<g id="edge3" class="edge">
<title>data/data.js&#45;&gt;data/en/index.js</title>
<path fill="none" stroke="#000000" stroke-width="2" stroke-opacity="0.200000" d="M253.07,-856.5C287.91,-856.5 344,-856.5 344,-856.5 344,-856.5 344,-846.21 344,-846.21"/>
<polygon fill="#000000" fill-opacity="0.200000" stroke="#000000" stroke-width="2" stroke-opacity="0.200000" points="346.1,-846.21 344,-840.21 341.9,-846.21 346.1,-846.21"/>
</g>
<!-- data/fr/index.js -->
<g id="node18" class="node">
<title>data/fr/index.js</title>
<g id="a_node18"><a xlink:href="data/fr/index.js" xlink:title="index.js">
<path fill="#ffffcc" stroke="black" d="M356,-900C356,-900 314,-900 314,-900 311,-900 308,-897 308,-894 308,-894 308,-888 308,-888 308,-885 311,-882 314,-882 314,-882 356,-882 356,-882 359,-882 362,-885 362,-888 362,-888 362,-894 362,-894 362,-897 359,-900 356,-900"/>
<text text-anchor="middle" x="335" y="-888.8" font-family="Helvetica,sans-Serif" font-size="9.00">index.js</text>
</a>
</g>
</g>
<!-- data/data.js&#45;&gt;data/fr/index.js -->
<g id="edge4" class="edge">
<title>data/data.js&#45;&gt;data/fr/index.js</title>
<path fill="none" stroke="#000000" stroke-width="2" stroke-opacity="0.200000" d="M253.06,-861C282.68,-861 326,-861 326,-861 326,-861 326,-875.84 326,-875.84"/>
<polygon fill="#000000" fill-opacity="0.200000" stroke="#000000" stroke-width="2" stroke-opacity="0.200000" points="323.9,-875.84 326,-881.84 328.1,-875.84 323.9,-875.84"/>
</g>
<!-- data/lead&#45;form&#45;submissions.json -->
<g id="node19" class="node">
<title>data/lead&#45;form&#45;submissions.json</title>
<g id="a_node19"><a xlink:href="data/lead-form-submissions.json" xlink:title="lead&#45;form&#45;submissions.json">
<path fill="#ffee44" stroke="black" d="M398,-982C398,-982 272,-982 272,-982 269,-982 266,-979 266,-976 266,-976 266,-970 266,-970 266,-967 269,-964 272,-964 272,-964 398,-964 398,-964 401,-964 404,-967 404,-970 404,-970 404,-976 404,-976 404,-979 401,-982 398,-982"/>
<text text-anchor="middle" x="335" y="-970.8" font-family="Helvetica,sans-Serif" font-size="9.00">lead&#45;form&#45;submissions.json</text>
</a>
</g>
</g>
<!-- data/data.js&#45;&gt;data/lead&#45;form&#45;submissions.json -->
<g id="edge5" class="edge">
<title>data/data.js&#45;&gt;data/lead&#45;form&#45;submissions.json</title>
<path fill="none" stroke="#000000" stroke-width="2" stroke-opacity="0.200000" d="M253.29,-865.5C269.53,-865.5 287,-865.5 287,-865.5 287,-865.5 287,-957.83 287,-957.83"/>
<polygon fill="#000000" fill-opacity="0.200000" stroke="#000000" stroke-width="2" stroke-opacity="0.200000" points="284.9,-957.83 287,-963.83 289.1,-957.83 284.9,-957.83"/>
</g>
<!-- config/functions/cron.js -->
<g id="node14" class="node">
<title>config/functions/cron.js</title>
<g id="a_node14"><a xlink:href="config/functions/cron.js" xlink:title="cron.js">
<path fill="#ccffcc" stroke="black" d="M116.5,-774C116.5,-774 74.5,-774 74.5,-774 71.5,-774 68.5,-771 68.5,-768 68.5,-768 68.5,-762 68.5,-762 68.5,-759 71.5,-756 74.5,-756 74.5,-756 116.5,-756 116.5,-756 119.5,-756 122.5,-759 122.5,-762 122.5,-762 122.5,-768 122.5,-768 122.5,-771 119.5,-774 116.5,-774"/>
<text text-anchor="middle" x="95.5" y="-762.8" font-family="Helvetica,sans-Serif" font-size="9.00">cron.js</text>
</a>
</g>
</g>
<!-- config/functions/responses/404.js -->
<g id="node15" class="node">
<title>config/functions/responses/404.js</title>
<g id="a_node15"><a xlink:href="config/functions/responses/404.js" xlink:title="404.js">
<path fill="#ccffcc" stroke="black" d="M116.5,-838C116.5,-838 74.5,-838 74.5,-838 71.5,-838 68.5,-835 68.5,-832 68.5,-832 68.5,-826 68.5,-826 68.5,-823 71.5,-820 74.5,-820 74.5,-820 116.5,-820 116.5,-820 119.5,-820 122.5,-823 122.5,-826 122.5,-826 122.5,-832 122.5,-832 122.5,-835 119.5,-838 116.5,-838"/>
<text text-anchor="middle" x="95.5" y="-826.8" font-family="Helvetica,sans-Serif" font-size="9.00">404.js</text>
</a>
</g>
</g>
<!-- config/server.js -->
<g id="node16" class="node">
<title>config/server.js</title>
<g id="a_node16"><a xlink:href="config/server.js" xlink:title="server.js">
<path fill="#ccffcc" stroke="black" d="M116.5,-710C116.5,-710 74.5,-710 74.5,-710 71.5,-710 68.5,-707 68.5,-704 68.5,-704 68.5,-698 68.5,-698 68.5,-695 71.5,-692 74.5,-692 74.5,-692 116.5,-692 116.5,-692 119.5,-692 122.5,-695 122.5,-698 122.5,-698 122.5,-704 122.5,-704 122.5,-707 119.5,-710 116.5,-710"/>
<text text-anchor="middle" x="95.5" y="-698.8" font-family="Helvetica,sans-Serif" font-size="9.00">server.js</text>
</a>
</g>
</g>
<!-- data/en/global.json -->
<g id="node20" class="node">
<title>data/en/global.json</title>
<g id="a_node20"><a xlink:href="data/en/global.json" xlink:title="global.json">
<path fill="#ffee44" stroke="black" d="M476,-810C476,-810 423,-810 423,-810 420,-810 417,-807 417,-804 417,-804 417,-798 417,-798 417,-795 420,-792 423,-792 423,-792 476,-792 476,-792 479,-792 482,-795 482,-798 482,-798 482,-804 482,-804 482,-807 479,-810 476,-810"/>
<text text-anchor="middle" x="449.5" y="-798.8" font-family="Helvetica,sans-Serif" font-size="9.00">global.json</text>
</a>
</g>
</g>
<!-- data/en/index.js&#45;&gt;data/en/global.json -->
<g id="edge6" class="edge">
<title>data/en/index.js&#45;&gt;data/en/global.json</title>
<path fill="none" stroke="#000000" stroke-width="2" stroke-opacity="0.200000" d="M335,-821.98C335,-812.21 335,-798 335,-798 335,-798 411,-798 411,-798"/>
<polygon fill="#000000" fill-opacity="0.200000" stroke="#000000" stroke-width="2" stroke-opacity="0.200000" points="411,-800.1 417,-798 411,-795.9 411,-800.1"/>
</g>
<!-- data/en/pages.json -->
<g id="node21" class="node">
<title>data/en/pages.json</title>
<g id="a_node21"><a xlink:href="data/en/pages.json" xlink:title="pages.json">
<path fill="#ffee44" stroke="black" d="M476,-840C476,-840 423,-840 423,-840 420,-840 417,-837 417,-834 417,-834 417,-828 417,-828 417,-825 420,-822 423,-822 423,-822 476,-822 476,-822 479,-822 482,-825 482,-828 482,-828 482,-834 482,-834 482,-837 479,-840 476,-840"/>
<text text-anchor="middle" x="449.5" y="-828.8" font-family="Helvetica,sans-Serif" font-size="9.00">pages.json</text>
</a>
</g>
</g>
<!-- data/en/index.js&#45;&gt;data/en/pages.json -->
<g id="edge7" class="edge">
<title>data/en/index.js&#45;&gt;data/en/pages.json</title>
<path fill="none" stroke="#000000" stroke-width="2" stroke-opacity="0.200000" d="M362.13,-831C362.13,-831 410.85,-831 410.85,-831"/>
<polygon fill="#000000" fill-opacity="0.200000" stroke="#000000" stroke-width="2" stroke-opacity="0.200000" points="410.85,-833.1 416.85,-831 410.85,-828.9 410.85,-833.1"/>
</g>
<!-- data/fr/global.json -->
<g id="node22" class="node">
<title>data/fr/global.json</title>
<g id="a_node22"><a xlink:href="data/fr/global.json" xlink:title="global.json">
<path fill="#ffee44" stroke="black" d="M476,-900C476,-900 423,-900 423,-900 420,-900 417,-897 417,-894 417,-894 417,-888 417,-888 417,-885 420,-882 423,-882 423,-882 476,-882 476,-882 479,-882 482,-885 482,-888 482,-888 482,-894 482,-894 482,-897 479,-900 476,-900"/>
<text text-anchor="middle" x="449.5" y="-888.8" font-family="Helvetica,sans-Serif" font-size="9.00">global.json</text>
</a>
</g>
</g>
<!-- data/fr/index.js&#45;&gt;data/fr/global.json -->
<g id="edge8" class="edge">
<title>data/fr/index.js&#45;&gt;data/fr/global.json</title>
<path fill="none" stroke="#000000" stroke-width="2" stroke-opacity="0.200000" d="M362.13,-891C362.13,-891 410.85,-891 410.85,-891"/>
<polygon fill="#000000" fill-opacity="0.200000" stroke="#000000" stroke-width="2" stroke-opacity="0.200000" points="410.85,-893.1 416.85,-891 410.85,-888.9 410.85,-893.1"/>
</g>
<!-- data/fr/pages.json -->
<g id="node23" class="node">
<title>data/fr/pages.json</title>
<g id="a_node23"><a xlink:href="data/fr/pages.json" xlink:title="pages.json">
<path fill="#ffee44" stroke="black" d="M476,-930C476,-930 423,-930 423,-930 420,-930 417,-927 417,-924 417,-924 417,-918 417,-918 417,-915 420,-912 423,-912 423,-912 476,-912 476,-912 479,-912 482,-915 482,-918 482,-918 482,-924 482,-924 482,-927 479,-930 476,-930"/>
<text text-anchor="middle" x="449.5" y="-918.8" font-family="Helvetica,sans-Serif" font-size="9.00">pages.json</text>
</a>
</g>
</g>
<!-- data/fr/index.js&#45;&gt;data/fr/pages.json -->
<g id="edge9" class="edge">
<title>data/fr/index.js&#45;&gt;data/fr/pages.json</title>
<path fill="none" stroke="#000000" stroke-width="2" stroke-opacity="0.200000" d="M335,-900.16C335,-908.99 335,-921 335,-921 335,-921 411,-921 411,-921"/>
<polygon fill="#000000" fill-opacity="0.200000" stroke="#000000" stroke-width="2" stroke-opacity="0.200000" points="411,-923.1 417,-921 411,-918.9 411,-923.1"/>
</g>
<!-- extensions/users&#45;permissions/config/jwt.js -->
<g id="node24" class="node">
<title>extensions/users&#45;permissions/config/jwt.js</title>
<g id="a_node24"><a xlink:href="extensions/users-permissions/config/jwt.js" xlink:title="jwt.js">
<path fill="#ccffcc" stroke="black" d="M116.5,-966C116.5,-966 74.5,-966 74.5,-966 71.5,-966 68.5,-963 68.5,-960 68.5,-960 68.5,-954 68.5,-954 68.5,-951 71.5,-948 74.5,-948 74.5,-948 116.5,-948 116.5,-948 119.5,-948 122.5,-951 122.5,-954 122.5,-954 122.5,-960 122.5,-960 122.5,-963 119.5,-966 116.5,-966"/>
<text text-anchor="middle" x="95.5" y="-954.8" font-family="Helvetica,sans-Serif" font-size="9.00">jwt.js</text>
</a>
</g>
</g>
</g>
</svg>
